<?xml version="1.0"?>
<svg xmlns="http://www.w3.org/2000/svg" xmlns:xlink="http://www.w3.org/1999/xlink" version="1.1" id="Capa_1" x="0px" y="0px" viewBox="0 0 512 512" style="enable-background:new 0 0 512 512;" xml:space="preserve" width="512px" height="512px"><g><g>
	<g>
		<rect x="120" y="140" width="272" height="30" data-original="#000000" class="active-path" data-old_color="#000000" fill="#B33536"/>
	</g>
</g><g>
	<g>
		<rect x="120" y="200" width="272" height="30" data-original="#000000" class="active-path" data-old_color="#000000" fill="#B33536"/>
	</g>
</g><g>
	<g>
		<rect x="312" y="302" width="80" height="30" data-original="#000000" class="active-path" data-old_color="#000000" fill="#B33536"/>
	</g>
</g><g>
	<g>
		<path d="M443.213,30H0v392h90v60h18.514L135,472.867L161.486,482H180v-60h332V98.787L443.213,30z M150,446.305l-15-5.172    l-15,5.172V409.49c4.848,0.988,9.864,1.509,15,1.509s10.152-0.521,15-1.509V446.305z M135,381c-24.813,0-45-20.187-45-45    s20.187-45,45-45s45,20.187,45,45S159.813,381,135,381z M482,392H184.817C200.253,378.253,210,358.248,210,336    c0-41.355-33.645-75-75-75s-75,33.645-75,75c0,22.248,9.747,42.253,25.183,56H30V60h392v60h60V392z" data-original="#000000" class="active-path" data-old_color="#000000" fill="#B33536"/>
	</g>
</g></g> </svg>
