<?xml version="1.0"?>
<svg xmlns="http://www.w3.org/2000/svg" height="512px" viewBox="0 0 512.00025 512" width="512px"><g><path d="m326.601562 295.839844c0 39.160156-31.746093 70.90625-70.90625 70.90625-39.160156 0-70.90625-31.746094-70.90625-70.90625s31.746094-70.90625 70.90625-70.90625c39.160157 0 70.90625 31.746094 70.90625 70.90625zm0 0" data-original="#000000" class="active-path" data-old_color="#000000" fill="#B33536"/><path d="m255.316406 366.75c-59.238281.203125-106.804687 49.105469-106.804687 108.34375v21.90625c0 8.285156 6.71875 15 15 15h184.363281c8.285156 0 15-6.714844 15-15v-23.070312c0-59.320313-48.191406-107.386719-107.558594-107.179688zm0 0" data-original="#000000" class="active-path" data-old_color="#000000" fill="#B33536"/><path d="m140.261719 170.960938 26.5-30.941407c7.285156-8.5 3-21.742187-7.90625-24.347656l-39.628907-9.460937-21.234374-34.765626c-5.621094-9.203124-19.539063-9.917968-25.601563 0l-21.238281 34.765626-39.628906 9.460937c-10.894532 2.601563-15.203126 15.835937-7.910157 24.347656l26.5 30.941407-3.253906 40.605468c-.878906 11.003906 10.191406 19.421875 20.710937 15.046875l37.621094-15.640625 37.613282 15.640625c10.34375 4.296875 21.605468-3.871093 20.710937-15.046875zm0 0" data-original="#000000" class="active-path" data-old_color="#000000" fill="#B33536"/><path d="m481.886719 170.960938 26.5-30.941407c7.285156-8.5 3-21.742187-7.90625-24.347656l-39.628907-9.460937-21.234374-34.765626c-5.621094-9.203124-19.539063-9.917968-25.601563 0l-21.238281 34.765626-39.628906 9.460937c-10.894532 2.601563-15.203126 15.835937-7.910157 24.347656l26.5 30.941407-3.253906 40.605468c-.878906 11.003906 10.191406 19.421875 20.710937 15.046875l37.621094-15.640625 37.613282 15.640625c10.34375 4.296875 21.605468-3.871093 20.710937-15.046875zm0 0" data-original="#000000" class="active-path" data-old_color="#000000" fill="#B33536"/><path d="m311.074219 106.6875 26.5-30.941406c7.285156-8.5 3-21.742188-7.90625-24.347656l-39.628907-9.460938-21.234374-34.761719c-5.621094-9.207031-19.539063-9.921875-25.601563-.003906l-21.242187 34.765625-39.628907 9.460938c-10.890625 2.601562-15.199219 15.835937-7.90625 24.347656l26.5 30.941406-3.253906 40.605469c-.882813 11.007812 10.191406 19.421875 20.710937 15.050781l37.621094-15.644531 37.613282 15.644531c10.34375 4.292969 21.605468-3.875 20.710937-15.050781zm0 0" data-original="#000000" class="active-path" data-old_color="#000000" fill="#B33536"/></g> </svg>
