<?xml version="1.0"?>
<svg xmlns="http://www.w3.org/2000/svg" height="512px" viewBox="0 -33 512 512" width="512px"><g><path d="m461.667969 106.511719v168.046875c29.933593-16.097656 50.332031-47.722656 50.332031-84.023438 0-36.304687-20.398438-67.929687-50.332031-84.023437zm0 0" data-original="#000000" class="active-path" data-old_color="#000000" fill="#B33536"/><path d="m160.667969 285.867188v-190.667969h-105.5c-30.421875 0-55.167969 24.75-55.167969 55.167969v80.332031c0 30.417969 24.746094 55.167969 55.167969 55.167969zm0 0" data-original="#000000" class="active-path" data-old_color="#000000" fill="#B33536"/><path d="m393.847656 0c-6.527344 0-13.246094 1.53125-19.960937 4.554688l-183.519531 82.582031c.195312.960937.300781 1.960937.300781 2.980469v200.832031c0 1.023437-.105469 2.019531-.300781 2.984375l183.515624 82.578125c6.71875 3.023437 13.433594 4.554687 19.964844 4.554687h.003906c10.957032 0 20.808594-4.378906 27.726563-12.332031 6.601563-7.582031 10.089844-17.8125 10.089844-29.582031v-297.234375c0-24.679688-15.554688-41.917969-37.820313-41.917969zm0 0" data-original="#000000" class="active-path" data-old_color="#000000" fill="#B33536"/><path d="m55.167969 315.867188c-7.972657 0-15.679688-1.125-23-3.179688l16.480469 82.398438c5.769531 28.851562 33.335937 51.445312 62.753906 51.445312 30.417968 0 55.167968-24.746094 55.167968-55.164062v-75.25l-.558593-.25zm0 0" data-original="#000000" class="active-path" data-old_color="#000000" fill="#B33536"/></g> </svg>
