<?xml version="1.0"?>
<svg xmlns="http://www.w3.org/2000/svg" viewBox="0 0 64 64" width="512px" height="512px"><g><g id="Product"><rect x="4" y="56" width="12" height="4" data-original="#000000" class="active-path" data-old_color="#000000" fill="#B33536"/><path d="M11.155,26.312a.884.884,0,0,0-.306-.146.988.988,0,0,0-1.221.694L4.275,43.314a3,3,0,0,0-.089,1.517l1.53,5.939A9.032,9.032,0,0,1,6,53.013V54h7.465l.7-1.043A4.987,4.987,0,0,0,15,50.183V47.668a2.981,2.981,0,0,0-.163-.974l-3.113-9.059a1.013,1.013,0,0,0-1.188-.788c-.015,0-.11.035-.133.043a.971.971,0,0,0-.663.93.837.837,0,0,0,.029.236l1.817,6.785a1,1,0,1,1-1.932.518L7.844,38.6a2.752,2.752,0,0,1-.1-.777A2.972,2.972,0,0,1,9.49,35.1l2.064-7.71A.983.983,0,0,0,11.155,26.312Z" data-original="#000000" class="active-path" data-old_color="#000000" fill="#B33536"/><path d="M58,54v-.987a9.032,9.032,0,0,1,.284-2.243l1.53-5.939a3,3,0,0,0-.089-1.517L54.372,26.86a.988.988,0,0,0-1.221-.694.884.884,0,0,0-.306.146.983.983,0,0,0-.4,1.079L54.51,35.1a2.972,2.972,0,0,1,1.75,2.719,2.752,2.752,0,0,1-.1.777l-1.81,6.762a1,1,0,0,1-1.932-.518l1.817-6.785a.837.837,0,0,0,.029-.236.971.971,0,0,0-.663-.93c-.023-.008-.118-.04-.133-.043a1.013,1.013,0,0,0-1.188.788l-3.113,9.059a2.981,2.981,0,0,0-.163.974v2.515a4.987,4.987,0,0,0,.84,2.774L50.535,54Z" data-original="#000000" class="active-path" data-old_color="#000000" fill="#B33536"/><rect x="48" y="56" width="12" height="4" data-original="#000000" class="active-path" data-old_color="#000000" fill="#B33536"/><polygon points="30.931 11.122 29.141 10.341 24.205 12.498 25.995 13.281 30.931 11.122" data-original="#000000" class="active-path" data-old_color="#000000" fill="#B33536"/><path d="M45.505,10,32,4.091,18.5,10l3.214,1.406L28.74,8.333a1,1,0,0,1,.8,0L33.83,10.2a1,1,0,0,1,0,1.832L28.49,14.373,32,15.909Z" data-original="#000000" class="active-path" data-old_color="#000000" fill="#B33536"/><path d="M17,11.529V29.387l14,7.122V17.654L27,15.9V21a1,1,0,0,1-1.447.895l-4-2A1,1,0,0,1,21,19V13.279Z" data-original="#000000" class="active-path" data-old_color="#000000" fill="#B33536"/><polygon points="23 18.382 25 19.382 25 15.029 23 14.154 23 18.382" data-original="#000000" class="active-path" data-old_color="#000000" fill="#B33536"/><path d="M47,11.529,33,17.654V36.518l14-7.035ZM34.551,27.247,38.5,25.262a1,1,0,1,1,.9,1.787l-3.95,1.985a1,1,0,1,1-.9-1.787Zm4.905,3.773-4.007,2.014a1,1,0,1,1-.9-1.787l4.007-2.014a1,1,0,0,1,.9,1.787Z" data-original="#000000" class="active-path" data-old_color="#000000" fill="#B33536"/></g></g> </svg>
